<svg width="50" height="43">
  <path id="app.svg" class="cls-1" d="M1024.57,964h42.86a3.577,3.577,0,0,1,3.57,3.583v35.837a3.574,3.574,0,0,1-3.57,3.58h-42.86a3.574,3.574,0,0,1-3.57-3.58V967.583A3.577,3.577,0,0,1,1024.57,964Zm0.43,9h42v30h-42V973Zm17-6h25v3h-25v-3Zm-14.75-.313a1.792,1.792,0,1,1-1.79,1.792A1.781,1.781,0,0,1,1027.25,966.687Zm5.36,0a1.792,1.792,0,1,1-1.79,1.792A1.788,1.788,0,0,1,1032.61,966.687Zm5.47,0a1.792,1.792,0,1,1-1.79,1.792A1.788,1.788,0,0,1,1038.08,966.687Z" transform="translate(-1021 -964)"/>
</svg>
