<svg width="45.031" height="45.969">
  <path id="seo.svg" class="cls-1" d="M848.082,1007.99l-1.094,1.1a3.108,3.108,0,0,1-4.375,0l-8.748-8.74a3.045,3.045,0,0,1-.437-3.714l-4.783-4.776a15.482,15.482,0,1,1,2.291-2.081l4.679,4.673a3.053,3.053,0,0,1,3.718.436l8.749,8.742A3.076,3.076,0,0,1,848.082,1007.99ZM831.017,979.4a11.536,11.536,0,0,0-16.565-10.43c0.808,0.828,2.025,2.066,2.09,2.066-1.257,0-5.371,4.109-5.371,5.461,0-.066-1.31-1.307-2.167-2.112a11.463,11.463,0,0,0-1.187,5.015A11.6,11.6,0,0,0,831.017,979.4Z" transform="translate(-803.969 -964.031)"/>
</svg>
