<svg  width="50" height="58">
  <path id="websites.svg" class="cls-1" d="M359.94,982.193h-2.127a15.165,15.165,0,0,1-1.475,3.536l1.965,1.965a3.217,3.217,0,0,1,0,4.552l-1.138,1.138a3.221,3.221,0,0,1-4.555,0l-1.978-1.977a15.163,15.163,0,0,1-3.526,1.45v2.062a3.22,3.22,0,0,1-3.221,3.219h-1.61a3.22,3.22,0,0,1-3.221-3.219v-2.062a15.138,15.138,0,0,1-3.525-1.45l-1.978,1.977a3.221,3.221,0,0,1-4.555,0l-1.139-1.138a3.217,3.217,0,0,1,0-4.552l1.966-1.965a15.168,15.168,0,0,1-1.476-3.536h-2.126A3.22,3.22,0,0,1,323,978.974v-1.609a3.22,3.22,0,0,1,3.221-3.219h2.1a15.153,15.153,0,0,1,1.426-3.511l-1.89-1.889a3.218,3.218,0,0,1,0-4.553L329,963.055a3.222,3.222,0,0,1,4.555,0l1.852,1.852a15.192,15.192,0,0,1,3.651-1.525v-2.163A3.22,3.22,0,0,1,342.275,958h1.61a3.22,3.22,0,0,1,3.221,3.219v2.162a15.219,15.219,0,0,1,3.651,1.526l1.853-1.852a3.222,3.222,0,0,1,4.555,0l1.138,1.138a3.218,3.218,0,0,1,0,4.553l-1.889,1.889a15.15,15.15,0,0,1,1.425,3.511h2.1a3.22,3.22,0,0,1,3.221,3.219v1.609A3.22,3.22,0,0,1,359.94,982.193Zm-16.86-12.826a8.853,8.853,0,1,0,8.858,8.853A8.855,8.855,0,0,0,343.08,969.367Zm0,12.776a4.024,4.024,0,1,1,4.026-4.024A4.025,4.025,0,0,1,343.08,982.143Zm28.358,26.127h-1.031a7.408,7.408,0,0,1-.716,1.71l0.953,0.95a1.563,1.563,0,0,1,0,2.21l-0.552.55a1.562,1.562,0,0,1-2.209,0l-0.96-.95a7.73,7.73,0,0,1-1.709.7v1a1.562,1.562,0,0,1-1.562,1.56H362.87a1.562,1.562,0,0,1-1.562-1.56v-1a7.758,7.758,0,0,1-1.71-.7l-0.959.95a1.562,1.562,0,0,1-2.209,0l-0.552-.55a1.563,1.563,0,0,1,0-2.21l0.953-.95a7.408,7.408,0,0,1-.716-1.71h-1.031a1.562,1.562,0,0,1-1.562-1.56v-0.79a1.562,1.562,0,0,1,1.562-1.56H356.1a7.308,7.308,0,0,1,.691-1.7l-0.916-.92a1.555,1.555,0,0,1,0-2.2l0.552-.552a1.562,1.562,0,0,1,2.209,0l0.9,0.9a7.353,7.353,0,0,1,1.77-.74v-1.049a1.562,1.562,0,0,1,1.562-1.561h0.782a1.562,1.562,0,0,1,1.562,1.561v1.049a7.353,7.353,0,0,1,1.77.74l0.9-.9a1.562,1.562,0,0,1,2.209,0l0.552,0.552a1.555,1.555,0,0,1,0,2.2l-0.916.92a7.4,7.4,0,0,1,.691,1.7h1.019a1.562,1.562,0,0,1,1.562,1.56v0.79A1.562,1.562,0,0,1,371.438,1008.27Zm-8.177-6.22a4.29,4.29,0,1,0,4.3,4.29A4.292,4.292,0,0,0,363.261,1002.05Zm0,6.19a1.95,1.95,0,1,1,1.953-1.95A1.949,1.949,0,0,1,363.261,1008.24Z" transform="translate(-323 -958)"/>
</svg>
