<svg id="overlay.svg" xmlns="http://www.w3.org/2000/svg" width="97" height="97" viewBox="0 0 97 97">
  <defs>
    <style>
      .cls-1 {
        fill: #2ecc71;
      }

      .cls-2 {
        fill: #fff;
        fill-rule: evenodd;
      }
    </style>
  </defs>
  <g id="link">
    <circle id="container" class="cls-1" cx="48.5" cy="48.5" r="48.5"/>
    <path id="link-2" data-name="link" class="cls-2" d="M395.546,495.358l-6.019,10.472a3.432,3.432,0,0,1-4.7,1.265l-1.49-.864,1.72-2.992h0a1.717,1.717,0,0,0,2.35-.632l4.3-7.481a1.731,1.731,0,0,0-.629-2.359l-5.958-3.455a1.715,1.715,0,0,0-2.349.632l-4.3,7.48a1.732,1.732,0,0,0,.629,2.36l-1.719,2.992-1.49-.864a3.463,3.463,0,0,1-1.259-4.719l6.02-10.473a3.432,3.432,0,0,1,4.7-1.264l8.936,5.182A3.464,3.464,0,0,1,395.546,495.358ZM375.2,513.48a1.731,1.731,0,0,1-.629-2.36l6.879-11.968a1.722,1.722,0,1,1,2.979,1.727l-6.88,11.969A1.715,1.715,0,0,1,375.2,513.48Zm-1.259-4.72h0a1.716,1.716,0,0,0-2.349.633l-4.3,7.48a1.732,1.732,0,0,0,.629,2.36l5.958,3.455a1.715,1.715,0,0,0,2.349-.632l4.3-7.481a1.731,1.731,0,0,0-.629-2.359h0l1.72-2.993,1.489,0.864a3.464,3.464,0,0,1,1.259,4.72l-6.019,10.472a3.432,3.432,0,0,1-4.7,1.265l-8.937-5.183a3.463,3.463,0,0,1-1.259-4.719l6.02-10.473a3.43,3.43,0,0,1,4.7-1.264l1.49,0.863Z" transform="translate(-332 -456)"/>
  </g>
</svg>
